<svg xmlns="http://www.w3.org/2000/svg" width="316.203" height="213.534" viewBox="0 0 316.203 213.534"><g transform="translate(3360 -2497)"><path d="M12.6,50.189l2.232-2.232c4.2-4.2,6.695-6.957,12.473-6.957H41.221c3.282,0,6.17,1.838,9.32,4.463l4.332,3.676C59.861,53.47,61.7,57.014,61.7,63.712V89.049c0,6.695-1.838,10.239-6.826,14.573L50.541,107.3c-3.019,2.494-6.695,4.463-9.845,4.463h-13c-5.119,0-8.664-3.148-12.208-6.432L12.6,102.57v.788c0,4.069-1.313,8.4-6.3,8.4-5.385,0-6.3-4.463-6.3-8.795V23.67c0-4.332.919-8.664,6.3-8.664s6.3,4.332,6.3,8.664Zm0,31.245c0,4.069.525,5.645,3.807,8.4l7.22,6.172c1.575,1.31,3.544,3.148,4.857,3.148h9.583a5.65,5.65,0,0,0,3.938-1.181l5.513-4.6c1.444-1.181,1.575-4.2,1.575-6.695V64.363c0-2.494-.656-4.463-1.706-5.251l-5.776-4.463a4.43,4.43,0,0,0-3.019-1.05H29.8a8.513,8.513,0,0,0-5.251,2.232l-8.139,7.094c-2.1,1.706-3.807,3.676-3.807,7.482Z" transform="translate(-3360 2523.029)"/><path d="M247.134,47c2.232-1.969,5.385-5.119,8.4-5.119a6.334,6.334,0,0,1,6.3,6.432c0,3.019-1.972,4.463-4.2,6.3L233.22,74.832,262.889,99.51c2.363,1.969,4.463,3.413,4.463,6.695a6.334,6.334,0,0,1-6.3,6.435c-2.494,0-4.069-1.575-5.907-3.019L223.506,83.236l-5.251,4.726v16.015c0,4.335-.919,8.666-6.3,8.666s-6.3-4.332-6.3-8.666V24.551c0-4.332.919-8.664,6.3-8.664s6.3,4.332,6.3,8.664V71.288Z" transform="translate(-3395.674 2597.565)" fill="#d50025"/><path d="M217.225,213.35a9.572,9.572,0,0,1-9.531-8.809c-1.4-17.491.429-55.956,2.83-90.312-2.232.585-4.14,1.261-5.614,1.7-53.771,15.985-60.553,4.365-62.779.547-3.954-6.779-.107-14.992,8.379-27.782,7.187-10.83,17.081-23.549,24.115-32.311,16.458-20.5,38.765-46.059,47.7-53.049,8.043-6.293,13.586-2.007,15.093-.544,5.6,5.428,4.5,14.267-.345,40.193-.938,5.018-1.824,9.76-2.182,12.58-.842,6.648-2.032,19.017-3.254,33.985,17.579-4.11,35.254-8.035,36.517-8.314A9.572,9.572,0,1,1,272.3,99.921c-.345.077-22.712,5.04-42.2,9.654-2.554,35.371-4.668,76.584-3.32,93.441A9.576,9.576,0,0,1,218,213.323C217.739,213.339,217.479,213.35,217.225,213.35Zm2.21-180.277c-18.566,20.546-47.158,56.035-56.68,71.91,8.068-.49,21.971-3.027,36.7-7.406,2.926-.87,7.351-2.029,12.572-3.328,1.444-18.181,2.9-33.43,3.872-41.1.427-3.38,1.321-8.158,2.355-13.69C218.6,37.626,219.008,35.422,219.434,33.073Z" transform="translate(-3431.156 2496.999)" fill="#d50025"/><path d="M342.355,100.957a5.507,5.507,0,0,1-5.069-7.659c4.571-10.776,23.734-24.351,39.916-34.973l2.743-1.808c5.986-3.937,21.885-14.4,22.4-24.411C402.694,25.273,401,17.19,384.7,15.338c-13.187-1.5-24.533,11.491-24.645,11.623a5.509,5.509,0,0,1-8.38-7.152c.612-.719,15.219-17.589,34.268-15.416,24.957,2.836,27.881,18.934,27.4,28.277-.8,15.586-19.4,27.824-27.344,33.049l-2.754,1.814c-13.044,8.562-21.509,14.988-26.951,19.8,14.486-2.156,36.407-4.181,53.764-.381A5.508,5.508,0,0,1,407.7,97.712c-19.946-4.362-49.712-.094-64.155,3.114A5.484,5.484,0,0,1,342.355,100.957Z" transform="translate(-3458.186 2609.577)"/></g></svg>